HIERARCHY
ROOT Hips
{
	OFFSET 0.000000 0.000000 0.000000
	CHANNELS 6 Xposition Yposition Zposition Zrotation Yrotation Xrotation 
	JOINT LHipJoint
	{
		OFFSET 0.000000 0.000000 0.000000
		CHANNELS 3 Zrotation Yrotation Xrotation
		JOINT LeftUpLeg
		{
			OFFSET 1.363060 -1.794630 0.839290
			CHANNELS 3 Zrotation Yrotation Xrotation
			JOINT LeftLeg
			{
				OFFSET 2.448110 -6.726130 0.000000
				CHANNELS 3 Zrotation Yrotation Xrotation
				JOINT LeftFoot
				{
					OFFSET 2.562200 -7.039590 0.000000
					CHANNELS 3 Zrotation Yrotation Xrotation
					JOINT LeftToeBase
					{
						OFFSET 0.157640 -0.433110 2.322550
						CHANNELS 3 Zrotation Yrotation Xrotation
						End Site
						{
							OFFSET 0.000000 0.000000 0.000000
						}
					}
				}
			}
		}
	}
	JOINT RHipJoint
	{
		OFFSET 0.000000 0.000000 0.000000
		CHANNELS 3 Zrotation Yrotation Xrotation
		JOINT RightUpLeg
		{
			OFFSET -1.305520 -1.794630 0.839290
			CHANNELS 3 Zrotation Yrotation Xrotation
			JOINT RightLeg
			{
				OFFSET -2.542530 -6.985550 0.000000
				CHANNELS 3 Zrotation Yrotation Xrotation
				JOINT RightFoot
				{
					OFFSET -2.568260 -7.056230 0.000000
					CHANNELS 3 Zrotation Yrotation Xrotation
					JOINT RightToeBase
					{
						OFFSET -0.164730 -0.452590 2.363150
						CHANNELS 3 Zrotation Yrotation Xrotation
						End Site
						{
							OFFSET 0.000000 0.000000 0.000000
						}
					}
				}
			}
		}
	}
	JOINT LowerBack
	{
		OFFSET 0.000000 0.000000 0.000000
		CHANNELS 3 Zrotation Yrotation Xrotation
		JOINT Spine
		{
			OFFSET 0.028270 2.035590 -0.193380
			CHANNELS 3 Zrotation Yrotation Xrotation
			JOINT Spine1
			{
				OFFSET 0.056720 2.048850 -0.042750
				CHANNELS 3 Zrotation Yrotation Xrotation
				JOINT Neck
				{
					OFFSET 0.000000 0.000000 0.000000
					CHANNELS 3 Zrotation Yrotation Xrotation
					JOINT Neck1
					{
						OFFSET -0.054170 1.746240 0.172020
						CHANNELS 3 Zrotation Yrotation Xrotation
						JOINT Head
						{
							OFFSET 0.104070 1.761360 -0.123970
							CHANNELS 3 Zrotation Yrotation Xrotation
							End Site
							{
								OFFSET 0.000000 0.000000 0.000000
							}
						}
					}
				}
				JOINT LeftShoulder
				{
					OFFSET 0.000000 0.000000 0.000000
					CHANNELS 3 Zrotation Yrotation Xrotation
					JOINT LeftArm
					{
						OFFSET 3.362410 1.200890 -0.311210
						CHANNELS 3 Zrotation Yrotation Xrotation
						JOINT LeftForeArm
						{
							OFFSET 4.983000 -0.000000 -0.000000
							CHANNELS 3 Zrotation Yrotation Xrotation
							JOINT LeftHand
							{
								OFFSET 3.483560 -0.000000 -0.000000
								CHANNELS 3 Zrotation Yrotation Xrotation
								JOINT LeftFingerBase
								{
									OFFSET 0.000000 0.000000 0.000000
									CHANNELS 3 Zrotation Yrotation Xrotation
									JOINT LeftHandIndex1
									{
										OFFSET 0.715260 -0.000000 -0.000000
										CHANNELS 3 Zrotation Yrotation Xrotation
										End Site
										{
											OFFSET 0.000000 0.000000 0.000000
										}
									}
								}
								JOINT LThumb
								{
									OFFSET 0.000000 0.000000 0.000000
									CHANNELS 3 Zrotation Yrotation Xrotation
									End Site
									{
										OFFSET 0.000000 0.000000 0.000000
									}
								}
							}
						}
					}
				}
				JOINT RightShoulder
				{
					OFFSET 0.000000 0.000000 0.000000
					CHANNELS 3 Zrotation Yrotation Xrotation
					JOINT RightArm
					{
						OFFSET -3.136600 1.374050 -0.404650
						CHANNELS 3 Zrotation Yrotation Xrotation
						JOINT RightForeArm
						{
							OFFSET -5.241900 -0.000000 -0.000000
							CHANNELS 3 Zrotation Yrotation Xrotation
							JOINT RightHand
							{
								OFFSET -3.444170 -0.000000 -0.000000
								CHANNELS 3 Zrotation Yrotation Xrotation
								JOINT RightFingerBase
								{
									OFFSET 0.000000 0.000000 0.000000
									CHANNELS 3 Zrotation Yrotation Xrotation
									JOINT RightHandIndex1
									{
										OFFSET -0.622530 -0.000000 -0.000000
										CHANNELS 3 Zrotation Yrotation Xrotation
										End Site
										{
											OFFSET 0.000000 0.000000 0.000000
										}
									}
								}
								JOINT RThumb
								{
									OFFSET 0.000000 0.000000 0.000000
									CHANNELS 3 Zrotation Yrotation Xrotation
									End Site
									{
										OFFSET 0.000000 0.000000 0.000000
									}
								}
							}
						}
					}
				}
			}
		}
	}
}
MOTION
Frames: 9
Frame Time: 0.008333
34.594694 17.017782 3.727749 -168.140671 56.427118 -165.563304 20.104638 3.929012 -2.494374 -37.277057 -14.769410 -7.582238 -11.281295 8.533491 16.658027 2.963563 -6.001435 -29.669263 3.803300 -11.893900 -35.357700 -20.074812 -4.199913 -5.373527 37.800858 -13.877664 -13.819481 -1.586471 -18.506011 55.824813 -0.424589 -0.231507 -11.232759 -7.479200 15.722500 -50.664200 1.955562 4.942093 11.828298 -0.858789 7.757311 -5.093619 -7.010725 2.988416 -16.196944 11.517063 7.756835 -17.087000 1.647119 10.908117 20.455981 -1.567600 6.779300 15.358200 8.118925 -6.121692 1.351418 -75.213013 20.742918 6.719723 15.381730 -25.710713 -4.475367 0.176311 2.666630 -2.290034 26.985742 22.609284 9.632300 -7.125000 0.000000 0.000000 -1.628400 51.785600 -0.272200 -9.344949 6.432896 1.340044 73.282874 -3.751920 56.646074 -36.945775 47.998652 -12.427648 0.031682 -2.607987 -0.600484 -27.629529 -12.755548 5.097800 7.125000 0.000000 0.000000 -0.635300 -40.997700 -0.062700 
34.745923 17.042503 3.736347 -168.709419 55.753823 -166.280296 20.149166 3.954040 -2.542738 -37.555814 -15.161636 -6.431980 -11.331622 8.235063 16.301304 3.035311 -6.399807 -29.927829 3.756800 -11.829500 -35.131600 -19.922147 -4.158777 -5.345094 36.932587 -11.783814 -14.179038 -0.846235 -18.437910 54.205168 -0.673852 -3.908104 -13.404257 -8.223200 16.281000 -53.362800 1.723556 4.780207 11.951364 -0.774550 7.500475 -5.054474 -6.733395 2.921315 -16.239967 11.494785 7.657476 -16.977072 1.716690 10.816531 20.527789 -1.555900 6.768300 15.360400 8.099079 -6.105911 1.348028 -74.606133 19.892353 7.145019 16.213458 -26.525762 -4.700794 0.232209 2.581973 -2.871417 27.372325 20.200066 8.667300 -7.125000 0.000000 0.000000 -0.862400 49.318000 -0.091800 -9.320643 6.471315 1.392500 73.427653 -4.937298 55.070274 -36.740519 47.847431 -12.378914 0.027915 -2.617915 -0.768279 -27.713425 -12.890643 5.176700 7.125000 0.000000 0.000000 -0.691700 -41.142200 -0.065800 
34.896401 17.067547 3.748708 -169.241137 54.976352 -166.964558 20.198648 3.981754 -2.584520 -37.812467 -15.562424 -5.266814 -11.406854 7.899414 15.860426 3.090506 -6.387623 -30.142550 3.850200 -11.958400 -35.585000 -19.830273 -4.134234 -5.322284 36.129535 -9.435649 -14.095408 0.215985 -18.137801 51.699563 -0.680208 -7.447206 -14.618466 -8.827400 16.695400 -55.491400 1.490603 4.622968 12.084435 -0.695755 7.248528 -5.019735 -6.464674 2.856717 -16.288424 11.479144 7.543193 -16.902682 1.770881 10.691480 20.582225 -1.556600 6.740500 15.358800 8.072162 -6.092547 1.342167 -74.025442 19.025337 7.765784 17.116766 -27.451251 -4.998343 0.273280 2.521923 -3.417154 27.982735 18.597619 8.115100 -7.125000 0.000000 0.000000 -0.081600 47.710900 -0.005500 -9.294859 6.513247 1.446376 73.612239 -6.164789 53.597331 -36.530404 47.687661 -12.315675 0.027571 -2.628892 -0.910141 -27.704427 -13.033356 5.240700 7.125000 0.000000 0.000000 -0.668500 -41.287800 -0.061200 
35.046448 17.093021 3.763326 -169.749893 54.098914 -167.593810 20.243496 3.994183 -2.641599 -38.045790 -15.979882 -4.094951 -11.505887 7.527184 15.332953 3.136666 -6.000182 -30.347094 4.070200 -12.253300 -36.633900 -19.753580 -4.081800 -5.254063 35.335491 -6.838184 -13.614468 1.479298 -17.535259 48.369782 -1.013009 -7.330413 -17.841267 -7.417600 15.673700 -50.436700 1.261259 4.466816 12.194186 -0.625195 7.001549 -4.991721 -6.218784 2.789728 -16.339996 11.474434 7.419336 -16.868996 1.812839 10.539207 20.624503 -1.567200 6.699200 15.358400 8.036552 -6.084812 1.331169 -73.483797 18.159933 8.478372 18.068881 -28.491011 -5.393983 0.256626 2.521138 -3.942411 28.925655 19.066439 8.668100 -7.125000 0.000000 0.000000 0.767000 48.358000 0.063500 -9.268220 6.555933 1.501277 73.832509 -7.420775 52.259789 -36.312276 47.517083 -12.234873 0.029991 -2.640396 -1.032607 -27.607615 -13.159146 5.277900 7.125000 0.000000 0.000000 -0.570900 -41.407500 -0.050600 
35.196065 17.118817 3.778588 -170.241624 53.150861 -168.168863 20.287710 3.997036 -2.701767 -38.272768 -16.445182 -2.915060 -11.618954 7.125374 14.732830 3.180737 -5.487613 -30.561771 4.321900 -12.576800 -37.804400 -19.698832 -4.016779 -5.163321 34.544259 -4.129049 -12.925207 2.836434 -16.708098 44.584868 -1.426721 -6.133386 -20.560579 -5.819400 14.251000 -44.252400 1.040318 4.321638 12.272848 -0.565773 6.771586 -4.969889 -5.998111 2.727001 -16.383396 11.464748 7.285173 -16.884558 1.846420 10.362289 20.659913 -1.581400 6.643700 15.362600 7.997394 -6.083396 1.313863 -73.036276 17.286136 9.109047 19.065892 -29.605848 -5.860341 0.186237 2.554828 -4.403917 29.866016 21.176281 10.097800 -7.125000 0.000000 0.000000 1.457200 50.801700 0.208300 -9.242366 6.600807 1.557566 74.075697 -8.702183 51.064704 -36.085259 47.336141 -12.139022 0.032456 -2.651648 -1.129389 -27.474127 -13.254617 5.291900 7.125000 0.000000 0.000000 -0.443300 -41.491100 -0.038400 
35.345897 17.143860 3.794174 -170.684799 52.142371 -168.659526 20.322475 3.988847 -2.760911 -38.458183 -16.968685 -1.753301 -11.728292 6.707207 14.089470 3.226599 -5.102455 -30.775977 4.518000 -12.819600 -38.696800 -19.664611 -3.942461 -5.053890 33.776799 -1.360456 -12.053866 4.248669 -15.660061 40.433485 -1.831142 -4.610310 -22.684946 -4.153200 12.361500 -37.023000 0.850973 4.190584 12.309644 -0.512561 6.565638 -4.953861 -5.797077 2.671299 -16.412093 11.421234 7.141142 -16.943328 1.875650 10.169401 20.683771 -1.591500 6.574200 15.364200 7.958501 -6.089579 1.292115 -72.688204 16.413822 9.734867 20.086635 -30.742131 -6.361476 0.091360 2.591101 -4.892349 30.664690 23.990058 11.907400 -7.125000 0.000000 0.000000 1.899800 54.018400 0.421300 -9.217093 6.647143 1.615257 74.329641 -10.003127 49.994154 -35.846667 47.142955 -12.029225 0.032782 -2.661771 -1.169589 -27.331961 -13.310054 5.284100 7.125000 0.000000 0.000000 -0.311000 -41.530600 -0.026600 
35.494870 17.167184 3.809544 -171.135206 51.074828 -169.078368 20.346534 3.959279 -2.825381 -38.629005 -17.546997 -0.667372 -11.824613 6.297695 13.439559 3.272133 -5.028898 -30.971517 4.603100 -12.922400 -39.078700 -19.614466 -3.837702 -4.922765 32.879127 1.325117 -11.369889 5.532041 -14.535889 36.374511 -2.164274 -2.967045 -24.230654 -2.545700 9.920500 -28.719800 0.680859 4.069949 12.276803 -0.469030 6.379939 -4.946337 -5.616417 2.620744 -16.421011 11.307059 6.982530 -17.043165 1.905499 9.962788 20.692193 -1.588700 6.486800 15.356000 7.921816 -6.106060 1.267236 -72.480891 15.571999 10.356084 21.152678 -31.896120 -6.885701 0.008176 2.610220 -5.400696 31.369321 26.513585 13.575500 -7.125000 0.000000 0.000000 2.232100 56.921100 0.652300 -9.193603 6.693826 1.674154 74.589990 -11.313693 49.016057 -35.602311 46.943050 -11.911182 0.030801 -2.670845 -1.134311 -27.188434 -13.337744 5.262600 7.125000 0.000000 0.000000 -0.180500 -41.540200 -0.015400 
35.642982 17.186961 3.824161 -171.613216 49.959572 -169.442963 20.363271 3.912827 -2.892917 -38.798096 -18.142958 0.309507 -11.903227 5.913540 12.814273 3.308432 -5.295804 -31.108194 4.573500 -12.886800 -38.946200 -19.553627 -3.712291 -4.772631 31.840263 4.012187 -10.708172 6.748881 -13.266034 32.203896 -2.391768 -1.578714 -25.300737 -1.192400 6.929200 -19.505700 0.522718 3.960260 12.171458 -0.436818 6.213881 -4.947630 -5.458237 2.575969 -16.409763 11.125519 6.806970 -17.175399 1.925575 9.742831 20.689268 -1.579400 6.382300 15.341000 7.886367 -6.132145 1.239643 -72.396394 14.796380 11.067343 22.251412 -33.063629 -7.439422 -0.051494 2.617416 -6.007485 32.298942 28.722140 15.231900 -7.125000 0.000000 0.000000 2.824700 59.541800 1.003500 -9.170622 6.740263 1.733477 74.854368 -12.623828 48.120177 -35.366042 46.747432 -11.793903 0.027962 -2.679517 -1.037766 -27.041987 -13.363114 5.239900 7.125000 0.000000 0.000000 -0.049400 -41.547500 -0.004200 
35.790772 17.201901 3.837489 -172.130030 48.807727 -169.778160 20.374174 3.854906 -2.968039 -38.972171 -18.687787 1.168776 -11.965204 5.562145 12.234129 3.320086 -5.793066 -31.128757 4.477000 -12.769400 -38.511300 -19.482024 -3.569158 -4.600111 30.630107 6.773822 -10.022566 7.872775 -11.850381 27.942905 -2.499018 -0.580163 -25.935652 -0.279400 3.399600 -9.393500 0.369094 3.857689 12.003257 -0.414236 6.061826 -4.955602 -5.317592 2.534966 -16.379461 10.904567 6.623319 -17.314682 1.912157 9.523225 20.674844 -1.582100 6.269100 15.320600 7.859487 -6.167818 1.215450 -72.440576 14.125211 11.912784 23.375309 -34.185381 -7.957542 -0.078311 2.599501 -6.574134 32.825960 29.073345 15.720800 -7.125000 0.000000 0.000000 3.371300 60.066000 1.240100 -9.148309 6.784879 1.791324 75.111533 -13.913401 47.324504 -35.145061 46.561548 -11.681755 0.025089 -2.688051 -0.913430 -26.900906 -13.398846 5.223700 7.125000 0.000000 0.000000 0.076700 -41.566700 0.006500 
